<svg width="1474" height="1585" viewBox="0 0 1474 1585" fill="none" xmlns="http://www.w3.org/2000/svg">
<g clip-path="url(#clip0_1234_265)">
<rect width="1474" height="1585" fill="white"/>
<path d="M676.381 473H898.17C905.31 473 910.87 479.196 910.1 486.294L890.572 666.294C889.911 672.385 884.768 677 878.642 677H701.428C695.439 677 690.368 672.585 689.542 666.654L664.495 486.654C663.491 479.438 669.096 473 676.381 473Z" fill="white" stroke="#007BFF" stroke-width="8"/>
<path d="M912 479.5C912 482.68 909.756 486.567 903.597 490.8C897.564 494.947 888.572 498.841 877.1 502.176C854.211 508.829 822.354 513 787 513C751.646 513 719.789 508.829 696.9 502.176C685.428 498.841 676.436 494.947 670.403 490.8C664.244 486.567 662 482.68 662 479.5C662 476.32 664.244 472.433 670.403 468.2C676.436 464.053 685.428 460.159 696.9 456.824C719.789 450.171 751.646 446 787 446C822.354 446 854.211 450.171 877.1 456.824C888.572 460.159 897.564 464.053 903.597 468.2C909.756 472.433 912 476.32 912 479.5Z" fill="white" stroke="#007BFF" stroke-width="8"/>
<path d="M705.96 648H774.28V631.68H750.44V536H728.2L705.8 551.36V570.08L728.04 555.04H731.88V631.68H705.96V648ZM830.693 533.76C806.373 533.76 788.133 551.36 788.133 592C788.133 632.48 806.373 650.08 830.693 650.08C854.853 650.08 873.253 632.48 873.253 592C873.253 551.36 854.853 533.76 830.693 533.76ZM830.693 633.44C812.773 633.44 806.853 614.72 806.853 592C806.853 569.12 812.773 550.4 830.693 550.4C848.613 550.4 854.533 569.12 854.533 592C854.533 614.72 848.613 633.44 830.693 633.44Z" fill="#007BFF"/>
<rect x="2" y="2" width="1470" height="1581" stroke="#274867" stroke-width="4"/>
<rect x="158" y="70" width="344" height="184" rx="16" fill="#CCE5FF"/>
<rect x="1060" y="70" width="344" height="184" rx="16" fill="#CCE5FF"/>
<rect x="1060" y="442" width="344" height="184" rx="16" fill="#CCE5FF"/>
<rect x="158" y="787" width="344" height="184" rx="16" fill="#CCE5FF"/>
<rect x="158" y="1265" width="344" height="184" rx="16" fill="#CCE5FF"/>
<rect x="1060" y="1265" width="344" height="184" rx="16" fill="#CCE5FF"/>
<path d="M1201.74 1221.79L1200.9 1248.65C1200.72 1254.24 1196.22 1258.6 1190.63 1258.43L1164.77 1259.76M1195.68 1253.46C1142.5 1211 943 1140 796 1280" stroke="#007BFF" stroke-width="8" stroke-miterlimit="10" stroke-linecap="round"/>
<path d="M329.139 1014.83L329.581 987.947C329.688 982.362 334.124 977.938 339.707 978.019L365.545 976.309M334.732 983.071C455.001 1083 960.501 1196.5 1236.5 970" stroke="#007BFF" stroke-width="8" stroke-miterlimit="10" stroke-linecap="round"/>
<path d="M676.381 1307H898.17C905.31 1307 910.87 1313.2 910.1 1320.29L890.572 1500.29C889.911 1506.39 884.768 1511 878.642 1511H701.428C695.439 1511 690.368 1506.59 689.542 1500.65L664.495 1320.65C663.491 1313.44 669.096 1307 676.381 1307Z" fill="white" stroke="#007BFF" stroke-width="8"/>
<path d="M912 1313.5C912 1316.68 909.756 1320.57 903.597 1324.8C897.564 1328.95 888.572 1332.84 877.1 1336.18C854.211 1342.83 822.354 1347 787 1347C751.646 1347 719.789 1342.83 696.9 1336.18C685.428 1332.84 676.436 1328.95 670.403 1324.8C664.244 1320.57 662 1316.68 662 1313.5C662 1310.32 664.244 1306.43 670.403 1302.2C676.436 1298.05 685.428 1294.16 696.9 1290.82C719.789 1284.17 751.646 1280 787 1280C822.354 1280 854.211 1284.17 877.1 1290.82C888.572 1294.16 897.564 1298.05 903.597 1302.2C909.756 1306.43 912 1310.32 912 1313.5Z" fill="white" stroke="#007BFF" stroke-width="8"/>
<path d="M810.048 462.049L803.51 488.124C802.137 493.539 796.812 496.839 791.393 495.492L765.842 491.286M797.385 491.702C747.168 391.572 599.5 328.549 301.5 462.049" stroke="#007BFF" stroke-width="8" stroke-miterlimit="10" stroke-linecap="round"/>
<rect x="158" y="442" width="344" height="184" rx="16" fill="#CCE5FF"/>
<rect x="1060" y="787" width="344" height="184" rx="16" fill="#CCE5FF"/>
<path d="M245.96 221H314.28V204.68H290.44V109H268.2L245.8 124.36V143.08L268.04 128.04H271.88V204.68H245.96V221ZM370.693 106.76C346.373 106.76 328.133 124.36 328.133 165C328.133 205.48 346.373 223.08 370.693 223.08C394.853 223.08 413.253 205.48 413.253 165C413.253 124.36 394.853 106.76 370.693 106.76ZM370.693 206.44C352.773 206.44 346.853 187.72 346.853 165C346.853 142.12 352.773 123.4 370.693 123.4C388.613 123.4 394.533 142.12 394.533 165C394.533 187.72 388.613 206.44 370.693 206.44Z" fill="#007BFF"/>
<path d="M73.72 192H106.28V185.76H94.04V136H85.32L73.64 143.92V151.28L85.4 143.36H87V185.76H73.72V192Z" fill="#007BFF"/>
<path d="M81.28 528.44C82 521.4 86.4 518.12 92.72 518.12C99.52 518.12 104 521.88 104 528.92C104 535.56 99.12 540.12 95.28 543.56C92.32 546.28 87.04 550.76 82.56 554.36L74.32 561.08V569H112.8V562.76H84.56V561L98.64 549.16C105.28 543.64 111.04 536.52 111.04 528.92C111.04 517.72 103.36 511.88 92.88 511.88C82.96 511.88 74.88 517.24 74.24 528.44H81.28Z" fill="#007BFF"/>
<path d="M76.32 853V859.08H100.8V860.84L87.12 872.68V880.12C88.4 879.8 90 879.64 92 879.64C100.24 879.64 104.64 884.2 104.64 891.56C104.64 899.24 99.6 903.8 91.92 903.8C85.2 903.8 80 899.72 79.36 893.32H72.32C72.96 902.84 80.56 910.04 91.92 910.04C103.36 910.04 111.68 903.16 111.68 891.56C111.68 880.76 104.64 874.76 95.04 874.52V872.84L109.04 860.84V853H76.32Z" fill="#007BFF"/>
<path d="M108.68 1367.64V1331H98.84L74.12 1365.88V1373.88H101.8V1387H108.68V1373.88H116.36V1367.64H108.68ZM81.48 1367.64V1365.88L100.12 1338.92H101.88V1367.64H81.48Z" fill="#007BFF"/>
<path d="M676.381 825H898.17C905.31 825 910.87 831.196 910.1 838.294L890.572 1018.29C889.911 1024.39 884.768 1029 878.642 1029H701.428C695.439 1029 690.368 1024.59 689.542 1018.65L664.495 838.654C663.491 831.438 669.096 825 676.381 825Z" fill="white" stroke="#007BFF" stroke-width="8"/>
<path d="M912 831.5C912 834.68 909.756 838.567 903.597 842.8C897.564 846.947 888.572 850.841 877.1 854.176C854.211 860.829 822.354 865 787 865C751.646 865 719.789 860.829 696.9 854.176C685.428 850.841 676.436 846.947 670.403 842.8C664.244 838.567 662 834.68 662 831.5C662 828.32 664.244 824.433 670.403 820.2C676.436 816.053 685.428 812.159 696.9 808.824C719.789 802.171 751.646 798 787 798C822.354 798 854.211 802.171 877.1 808.824C888.572 812.159 897.564 816.053 903.597 820.2C909.756 824.433 912 828.32 912 831.5Z" fill="white" stroke="#007BFF" stroke-width="8"/>
<path d="M705.96 1006H774.28V989.68H750.44V894H728.2L705.8 909.36V928.08L728.04 913.04H731.88V989.68H705.96V1006ZM830.693 891.76C806.373 891.76 788.133 909.36 788.133 950C788.133 990.48 806.373 1008.08 830.693 1008.08C854.853 1008.08 873.253 990.48 873.253 950C873.253 909.36 854.853 891.76 830.693 891.76ZM830.693 991.44C812.773 991.44 806.853 972.72 806.853 950C806.853 927.12 812.773 908.4 830.693 908.4C848.613 908.4 854.533 927.12 854.533 950C854.533 972.72 848.613 991.44 830.693 991.44Z" fill="#007BFF"/>
<path d="M1152.96 1416H1221.28V1399.68H1197.44V1304H1175.2L1152.8 1319.36V1338.08L1175.04 1323.04H1178.88V1399.68H1152.96V1416ZM1277.69 1301.76C1253.37 1301.76 1235.13 1319.36 1235.13 1360C1235.13 1400.48 1253.37 1418.08 1277.69 1418.08C1301.85 1418.08 1320.25 1400.48 1320.25 1360C1320.25 1319.36 1301.85 1301.76 1277.69 1301.76ZM1277.69 1401.44C1259.77 1401.44 1253.85 1382.72 1253.85 1360C1253.85 1337.12 1259.77 1318.4 1277.69 1318.4C1295.61 1318.4 1301.53 1337.12 1301.53 1360C1301.53 1382.72 1295.61 1401.44 1277.69 1401.44Z" fill="#007BFF"/>
<path d="M263.72 858.32C265 846 273 840.4 283.88 840.4C295.4 840.4 303.24 846.64 303.24 858.96C303.24 870.8 293.8 879.76 285.48 886.32L245.32 918V938H325.16V921.68H273.32V917.84L299.24 896.88C312.04 886.64 321.96 874 321.96 858.8C321.96 835.92 306.12 823.76 284.36 823.76C262.12 823.76 246.44 835.28 245.16 858.32H263.72ZM383.036 823.76C358.716 823.76 340.476 841.36 340.476 882C340.476 922.48 358.716 940.08 383.036 940.08C407.196 940.08 425.596 922.48 425.596 882C425.596 841.36 407.196 823.76 383.036 823.76ZM383.036 923.44C365.116 923.44 359.196 904.72 359.196 882C359.196 859.12 365.116 840.4 383.036 840.4C400.956 840.4 406.876 859.12 406.876 882C406.876 904.72 400.956 923.44 383.036 923.44Z" fill="#007BFF"/>
<path d="M1160.72 513.32C1162 501 1170 495.4 1180.88 495.4C1192.4 495.4 1200.24 501.64 1200.24 513.96C1200.24 525.8 1190.8 534.76 1182.48 541.32L1142.32 573V593H1222.16V576.68H1170.32V572.84L1196.24 551.88C1209.04 541.64 1218.96 529 1218.96 513.8C1218.96 490.92 1203.12 478.76 1181.36 478.76C1159.12 478.76 1143.44 490.28 1142.16 513.32H1160.72ZM1280.04 478.76C1255.72 478.76 1237.48 496.36 1237.48 537C1237.48 577.48 1255.72 595.08 1280.04 595.08C1304.2 595.08 1322.6 577.48 1322.6 537C1322.6 496.36 1304.2 478.76 1280.04 478.76ZM1280.04 578.44C1262.12 578.44 1256.2 559.72 1256.2 537C1256.2 514.12 1262.12 495.4 1280.04 495.4C1297.96 495.4 1303.88 514.12 1303.88 537C1303.88 559.72 1297.96 578.44 1280.04 578.44Z" fill="#007BFF"/>
<path d="M1160.72 141.32C1162 129 1170 123.4 1180.88 123.4C1192.4 123.4 1200.24 129.64 1200.24 141.96C1200.24 153.8 1190.8 162.76 1182.48 169.32L1142.32 201V221H1222.16V204.68H1170.32V200.84L1196.24 179.88C1209.04 169.64 1218.96 157 1218.96 141.8C1218.96 118.92 1203.12 106.76 1181.36 106.76C1159.12 106.76 1143.44 118.28 1142.16 141.32H1160.72ZM1280.04 106.76C1255.72 106.76 1237.48 124.36 1237.48 165C1237.48 205.48 1255.72 223.08 1280.04 223.08C1304.2 223.08 1322.6 205.48 1322.6 165C1322.6 124.36 1304.2 106.76 1280.04 106.76ZM1280.04 206.44C1262.12 206.44 1256.2 187.72 1256.2 165C1256.2 142.12 1262.12 123.4 1280.04 123.4C1297.96 123.4 1303.88 142.12 1303.88 165C1303.88 187.72 1297.96 206.44 1280.04 206.44Z" fill="#007BFF"/>
<path d="M263.72 1336.32C265 1324 273 1318.4 283.88 1318.4C295.4 1318.4 303.24 1324.64 303.24 1336.96C303.24 1348.8 293.8 1357.76 285.48 1364.32L245.32 1396V1416H325.16V1399.68H273.32V1395.84L299.24 1374.88C312.04 1364.64 321.96 1352 321.96 1336.8C321.96 1313.92 306.12 1301.76 284.36 1301.76C262.12 1301.76 246.44 1313.28 245.16 1336.32H263.72ZM383.036 1301.76C358.716 1301.76 340.476 1319.36 340.476 1360C340.476 1400.48 358.716 1418.08 383.036 1418.08C407.196 1418.08 425.596 1400.48 425.596 1360C425.596 1319.36 407.196 1301.76 383.036 1301.76ZM383.036 1401.44C365.116 1401.44 359.196 1382.72 359.196 1360C359.196 1337.12 365.116 1318.4 383.036 1318.4C400.956 1318.4 406.876 1337.12 406.876 1360C406.876 1382.72 400.956 1401.44 383.036 1401.44Z" fill="#007BFF"/>
<line x1="75" y1="340" x2="1404" y2="340" stroke="#CCE5FF" stroke-width="4"/>
<line x1="71" y1="726" x2="1400" y2="726" stroke="#CCE5FF" stroke-width="4"/>
<line x1="69" y1="1158" x2="1398" y2="1158" stroke="#CCE5FF" stroke-width="4"/>
</g>
<defs>
<clipPath id="clip0_1234_265">
<rect width="1474" height="1585" fill="white"/>
</clipPath>
</defs>
</svg>
